<?xml version="1.0" encoding="utf-8"?>
<!-- Generator: Adobe Illustrator 16.0.0, SVG Export Plug-In . SVG Version: 6.00 Build 0)  -->
<!DOCTYPE svg PUBLIC "-//W3C//DTD SVG 1.1//EN" "http://www.w3.org/Graphics/SVG/1.1/DTD/svg11.dtd">
<svg version="1.1" id="Layer_1" xmlns="http://www.w3.org/2000/svg" xmlns:xlink="http://www.w3.org/1999/xlink" x="0px" y="0px"
	 width="98.578px" height="96.754px" viewBox="0 0 98.578 96.754" enable-background="new 0 0 98.578 96.754" xml:space="preserve">
<g>
	<path fill="#BBE5EE" d="M51.817,6.223C51.079,4.076,50.455,1.988,49.928,0v48.998h45.01c-3.953-1.111-7.693-2.548-11.212-4.299
		C65.66,38.658,56.226,27.035,51.817,6.223"/>
	<path fill="#BBE5EE" d="M91.796,53.947c2.342-0.827,4.618-1.516,6.782-2.088H49.929l-0.001,44.895
		c1.146-4.094,2.633-7.955,4.459-11.578C60.383,67.683,71.733,58.395,91.796,53.947"/>
	<path fill="#BBE5EE" d="M47.065,4.652c-1.325,4.826-3.113,9.322-5.354,13.476c-5.713,14.66-15.662,23.136-32.119,27.694
		C6.199,47.184,2.943,48.219,0,48.998l47.066-0.001L47.065,4.652z"/>
	<path fill="#BBE5EE" d="M47.066,51.859L0.681,51.861c3.368,0.896,7.112,2.117,10.983,3.781
		c14.815,4.562,24.071,12.609,29.596,25.97c2.458,4.405,4.391,9.211,5.806,14.401L47.066,51.859z"/>
	<path fill="#BBE5EE" d="M44.111,44.736c2.796-2.795,7.328-2.795,10.125,0c2.795,2.797,2.795,7.33,0,10.125
		c-2.797,2.797-7.329,2.797-10.125,0C41.315,52.066,41.315,47.533,44.111,44.736"/>
	<circle fill="none" stroke="#FFFFFF" stroke-width="2.691" stroke-miterlimit="10" cx="49.174" cy="49.799" r="7.159"/>
</g>
</svg>
