<?xml version="1.0" encoding="utf-8"?>
<!-- Generator: Adobe Illustrator 16.0.0, SVG Export Plug-In . SVG Version: 6.00 Build 0)  -->
<!DOCTYPE svg PUBLIC "-//W3C//DTD SVG 1.1//EN" "http://www.w3.org/Graphics/SVG/1.1/DTD/svg11.dtd">
<svg version="1.1" id="Layer_1" xmlns="http://www.w3.org/2000/svg" xmlns:xlink="http://www.w3.org/1999/xlink" x="0px" y="0px"
	 width="457.5px" height="198px" viewBox="0 0 457.5 198" enable-background="new 0 0 457.5 198" xml:space="preserve">
<g>
	<polygon fill="#97CA52" points="352.832,39.738 392.515,24.09 388.028,66.377 	"/>
	<path fill="none" stroke="#97CA52" stroke-width="9" stroke-miterlimit="10" d="M68.512,147.021
		c-0.24,1.258-0.34,2.556-0.541,3.821c2.326-22.578,32.281-27.546,50.107-28.244c14.002-0.547,27.772,1.633,41.701,2.579
		c17.538,1.192,29.27-3.086,44.342-12.332c13.24-8.123,25.387-18.039,38.955-25.626c16.552-9.254,27.795-10.752,46.241-8.02
		c19.106,2.831,31.339,4.728,48.89-4.272c12.952-6.643,29.573-15.546,35.824-29.604"/>
	<path fill="#808285" d="M42.805,153.115c-1.373-1.861-3.159-3.221-5.365-4.079c-2.205-0.854-4.362-1.286-6.467-1.286
		c-2.696,0-5.145,0.49-7.35,1.471c-2.203,0.982-4.104,2.328-5.695,4.043c-1.594,1.717-2.818,3.724-3.674,6.023
		c-0.858,2.306-1.287,4.805-1.287,7.495c0,2.845,0.416,5.442,1.248,7.794c0.833,2.352,2.022,4.371,3.565,6.062
		c1.542,1.692,3.392,3.003,5.548,3.934c2.154,0.929,4.58,1.396,7.277,1.396c2.793,0,5.265-0.551,7.422-1.654
		c2.154-1.102,3.895-2.561,5.217-4.372l7.426,5.216c-2.307,2.895-5.122,5.135-8.453,6.729c-3.332,1.589-7.229,2.387-11.688,2.387
		c-4.066,0-7.803-0.674-11.207-2.02s-6.333-3.236-8.781-5.66c-2.452-2.426-4.36-5.314-5.732-8.671
		c-1.373-3.357-2.06-7.069-2.06-11.139c0-4.161,0.724-7.921,2.171-11.278c1.444-3.355,3.428-6.209,5.951-8.562
		c2.524-2.351,5.502-4.162,8.932-5.438c3.427-1.275,7.15-1.912,11.17-1.912c1.664,0,3.403,0.161,5.217,0.479
		c1.814,0.319,3.553,0.808,5.219,1.471c1.666,0.66,3.234,1.481,4.703,2.459c1.468,0.981,2.721,2.161,3.748,3.528L42.805,153.115z"/>
	<path fill="#808285" d="M416.56,3.797h20.281c1.961,0,3.896,0.232,5.807,0.699c1.91,0.466,3.612,1.225,5.108,2.277
		c1.491,1.054,2.706,2.415,3.636,4.079c0.933,1.665,1.398,3.676,1.398,6.026c0,2.94-0.834,5.366-2.5,7.274
		c-1.665,1.912-3.848,3.283-6.54,4.117v0.146c3.282,0.441,5.978,1.715,8.084,3.821c2.104,2.106,3.161,4.927,3.161,8.45
		c0,2.844-0.566,5.231-1.69,7.166c-1.128,1.938-2.61,3.49-4.448,4.668c-1.836,1.178-3.944,2.021-6.322,2.535
		c-2.375,0.515-4.786,0.773-7.234,0.773h-18.74V3.797z M425.817,24.964h8.232c3.086,0,5.437-0.612,7.053-1.84
		c1.617-1.219,2.428-2.961,2.428-5.217c0-2.351-0.832-4.017-2.498-4.996c-1.67-0.982-4.264-1.471-7.791-1.471h-7.424V24.964z
		 M425.817,48.039h8.305c1.178,0,2.447-0.084,3.821-0.257c1.372-0.17,2.634-0.523,3.786-1.064c1.153-0.539,2.104-1.324,2.865-2.354
		c0.76-1.028,1.141-2.399,1.141-4.114c0-2.744-0.933-4.653-2.795-5.731c-1.863-1.078-4.679-1.617-8.451-1.617h-8.672V48.039z"/>
</g>
</svg>
