<?xml version="1.0" encoding="utf-8"?>
<!-- Generator: Adobe Illustrator 16.0.0, SVG Export Plug-In . SVG Version: 6.00 Build 0)  -->
<!DOCTYPE svg PUBLIC "-//W3C//DTD SVG 1.1//EN" "http://www.w3.org/Graphics/SVG/1.1/DTD/svg11.dtd">
<svg version="1.1" id="Layer_1" xmlns="http://www.w3.org/2000/svg" xmlns:xlink="http://www.w3.org/1999/xlink" x="0px" y="0px"
	 width="48.691px" height="94.668px" viewBox="0 0 48.691 94.668" enable-background="new 0 0 48.691 94.668" xml:space="preserve">
<g>
	<path fill="#97CA52" d="M9.745,34.125l14.759-14.491c1.188-1.153,2.135-2.313,2.838-3.483s1.054-2.514,1.054-4.029
		c0-1.8-0.585-3.235-1.757-4.295c-1.17-1.064-2.621-1.598-4.351-1.598c-1.839,0-3.317,0.621-4.435,1.867
		c-1.117,1.242-1.801,2.801-2.052,4.676l-6.327-0.977c0.182-1.583,0.632-3.045,1.352-4.375c0.723-1.334,1.641-2.487,2.758-3.463
		c1.117-0.972,2.424-1.736,3.919-2.298c1.495-0.558,3.126-0.836,4.894-0.836c1.657,0,3.252,0.236,4.782,0.701
		c1.533,0.469,2.894,1.183,4.082,2.137c1.189,0.954,2.135,2.129,2.838,3.515c0.703,1.389,1.054,2.998,1.054,4.84
		c0,1.225-0.16,2.369-0.485,3.429c-0.325,1.064-0.767,2.065-1.324,3.003c-0.56,0.938-1.208,1.828-1.946,2.674
		c-0.739,0.849-1.54,1.668-2.405,2.462L17.964,34.125h17.244v5.945H9.745V34.125z"/>
	<path fill="#97CA52" d="M20.534,70.46h1.729c0.974,0,1.938-0.08,2.893-0.241c0.955-0.164,1.829-0.459,2.623-0.895
		c0.792-0.432,1.432-1.018,1.917-1.757c0.488-0.735,0.73-1.702,0.73-2.89c0-0.865-0.162-1.643-0.485-2.326
		c-0.325-0.685-0.767-1.259-1.326-1.728c-0.558-0.469-1.208-0.832-1.944-1.081c-0.739-0.254-1.506-0.381-2.298-0.381
		c-1.586,0-2.901,0.453-3.947,1.352c-1.045,0.9-1.765,2.091-2.162,3.569l-6.109-1.567c0.325-1.301,0.875-2.479,1.649-3.543
		c0.775-1.061,1.711-1.98,2.811-2.758c1.101-0.773,2.334-1.377,3.704-1.808c1.368-0.435,2.811-0.65,4.325-0.65
		c1.657,0,3.232,0.224,4.724,0.676c1.493,0.452,2.802,1.119,3.928,2.002c1.125,0.882,2.01,1.972,2.654,3.269
		c0.644,1.297,0.965,2.812,0.965,4.54c0,2.058-0.621,3.886-1.864,5.486c-1.244,1.604-2.912,2.661-5.001,3.163v0.109
		c2.342,0.469,4.243,1.521,5.704,3.164c1.459,1.639,2.188,3.648,2.188,6.027c0,1.98-0.384,3.711-1.153,5.189
		c-0.769,1.479-1.786,2.703-3.056,3.675c-1.269,0.972-2.694,1.702-4.28,2.188c-1.583,0.489-3.187,0.731-4.808,0.731
		c-1.622,0-3.155-0.17-4.596-0.512c-1.442-0.346-2.766-0.875-3.974-1.597s-2.271-1.655-3.188-2.812
		c-0.919-1.153-1.633-2.521-2.135-4.104l6.054-1.893c0.467,1.512,1.341,2.791,2.62,3.834c1.28,1.048,2.948,1.572,5.001,1.572
		c0.83,0,1.668-0.119,2.515-0.355c0.847-0.232,1.604-0.6,2.271-1.106c0.667-0.503,1.208-1.153,1.622-1.946
		c0.413-0.791,0.62-1.766,0.62-2.919c0-1.225-0.295-2.259-0.891-3.108c-0.596-0.845-1.343-1.512-2.243-2.002
		c-0.901-0.485-1.902-0.836-3-1.051c-1.101-0.217-2.154-0.326-3.164-0.326h-1.621V70.46z"/>
	<g>
		<line fill="#2BC2DE" stroke="#97CA52" stroke-width="3" stroke-miterlimit="10" x1="0" y1="47.226" x2="48.691" y2="47.226"/>
	</g>
</g>
</svg>
